<?xml version="1.0" encoding="utf-8"?>
<!-- Generator: Adobe Illustrator 19.2.1, SVG Export Plug-In . SVG Version: 6.00 Build 0)  -->
<svg version="1.1" id="Layer_1" xmlns="http://www.w3.org/2000/svg" xmlns:xlink="http://www.w3.org/1999/xlink" x="0px" y="0px"
	 viewBox="0 0 175.1 86.9" style="enable-background:new 0 0 175.1 86.9;" xml:space="preserve">
<style type="text/css">
	.st0{fill-rule:evenodd;clip-rule:evenodd;fill:#754C24;}
	.st1{fill:#E2231A;}
	.st2{fill-rule:evenodd;clip-rule:evenodd;fill:#E2B80C;}
	.st3{fill-rule:evenodd;clip-rule:evenodd;fill:#FFFFFF;}
</style>
<path class="st0" d="M123,26C123,26,123,26,123,26c0.4,0,0.7-0.7,0.8-1.1c0.1-0.4,0.1-1-0.1-1.3L117.1,13c0,0,0-0.1-0.1-0.1
	c-0.7-0.9-1.6-1.5-2.6-1.5c-0.3,0-0.6,0.1-0.9,0.2c-0.3-0.1-0.5-0.1-0.8-0.1c-0.7,0-1.3,0.3-1.8,0.8c0-0.3,0-0.6,0-0.8
	c-0.1-0.4-0.3-0.8-0.7-1c-0.1-0.5-0.4-0.8-0.8-1c-0.2-0.1-0.4-0.1-0.5-0.1c-0.3,0-0.7,0.1-0.9,0.3l-0.8,0.7c-0.6-0.2-1.3-0.5-2-0.6
	c-0.1,0-0.1,0-0.2,0c-0.4,0-0.8,0.2-1.1,0.5l-0.1,0c-0.1,0-0.1,0-0.2,0c-0.1,0-0.3,0-0.4,0c-0.6,0-1.2,0.3-1.6,0.7
	c-0.7,0.9-0.4,2-0.2,2.8c0,0.1,0.1,0.2,0.1,0.3c0.1,0.5,0.4,0.9,0.8,1c0.2,0.1,0.3,0.1,0.5,0.1c0.3,0,0.5-0.1,0.8-0.3
	c0.1,0,0.4,0.1,0.6,0.3c0.3,0.3,0.4,0.7,0.3,1.3c0,0.2,0,0.3,0,0.5c-0.7,1.2-1.7,2.1-2,2.4c-0.1,0.1-0.2,0.2-0.3,0.3l-1.2-2.6
	c-1.2-2.4-3.1-2.8-4-2.8c-0.4,0-0.9,0.1-1.3,0.2c-0.2,0.1-0.4,0.2-0.6,0.4c-0.1-0.2-0.4-0.3-0.6-0.5c0.3-0.3,0.4-0.6,0.4-1.1v-1.5
	c0-0.2,0-0.4,0-0.5c0.1-0.1,0.2-0.2,0.3-0.4l2-3.9c0.2-0.3,0.2-0.7,0.1-1.1S97,5.2,96.7,5.1l-2.5-1.3c-0.3-0.1-0.6-0.2-0.9-0.2
	c-0.5,0-1,0.2-1.3,0.6c0,0-0.1,0.1-0.1,0.1c0.1-0.3,0.1-0.6,0.1-0.9c-0.1-0.3-0.3-1-1-1.4l-2.7-1.8C88,0.1,87.7,0,87.4,0
	s-0.5,0.1-0.8,0.2L84,2c-0.8,0.5-1,1.1-1.1,1.4c0,0.3,0,0.6,0.1,0.9c0-0.1-0.1-0.1-0.1-0.2c-0.3-0.4-0.8-0.6-1.3-0.6
	c-0.3,0-0.6,0.1-0.9,0.2l-2.6,1.3c-0.3,0.2-0.6,0.5-0.7,0.8c-0.1,0.4-0.1,0.7,0.1,1.1l2,3.9c0.1,0.1,0,0.2,0.1,0.4
	c-0.1,0.2-0.4,0.4-0.4,0.5v1.5c0,0.4,0.5,0.8,0.8,1c-0.2,0.2-0.1,0.3-0.2,0.5c-0.2-0.2-0.3-0.3-0.6-0.4c-0.4-0.1-0.9-0.2-1.3-0.2
	c-1.2,0-2.8,0.5-4.1,2.9l-1.2,2.5c-0.1-0.1-0.2-0.2-0.3-0.3c-0.8-0.7-1.5-1.5-2-2.4c0-0.2,0.1-0.3,0-0.5c0-0.5,0.1-1,0.3-1.3
	c0.2-0.2,0.4-0.3,0.5-0.3c0.2,0.2,0.5,0.2,0.8,0.2c0.2,0,0.3,0,0.5-0.1c0.5-0.2,0.8-0.5,0.9-1c0-0.1,0.1-0.2,0.1-0.3
	c0.2-0.8,0.5-1.9-0.2-2.8c-0.4-0.5-0.9-0.7-1.5-0.7c-0.1,0-0.3,0-0.4,0c-0.1,0-0.1,0-0.2,0l-0.1,0c-0.3-0.3-0.7-0.5-1.1-0.5
	c-0.1,0-0.1,0-0.2,0c-0.8,0.1-1.5,0.4-2.1,0.6l-0.7-0.7c-0.3-0.2-0.6-0.4-0.9-0.4c-0.2,0-0.4,0-0.5,0.1c-0.4,0.2-0.8,0.6-0.9,1
	c-0.4,0.2-0.6,0.6-0.7,1c0,0.2,0,0.5,0,0.8c-0.5-0.5-1.1-0.8-1.8-0.8c-0.3,0-0.5,0-0.8,0.1c-0.3-0.1-0.6-0.2-0.9-0.2
	c-0.9,0-1.9,0.5-2.6,1.4c0,0,0,0.1-0.1,0.1L51,23.6c-0.2,0.4-0.3,0.8-0.1,1.2c0.1,0.4,0.4,0.7,0.8,0.9c0,0,0,0,0,0
	c-2.2,1.8-1.2,5.7-0.7,7.6c0.1,0.5,0.5,0.9,1.1,1c0,0,0,0,0,0c-0.2,0.3-0.4,0.7-0.5,1.1c-0.4,1.6,0.4,3.3,1.2,4.4
	c1,1.3,2.2,2.1,3.5,2.2c0,0,0.1,0,0.1,0c0.1,0,0.2,0,0.3,0c1.1-0.2,1.9-0.7,2.5-1.3c0,0,0,0,0.1,0.1c-0.5,0.4-1,1.1-1.2,2.5
	c0,0.4,0.1,0.8,0.3,1.1c0.1,0.1,0.1,0.1,0.2,0.2c0,0,0,0,0,0c-0.3,0.4-0.3,0.9-0.2,1.3c0.1,0.3,0.5,1.1,1.1,1.7c0,0,0,0,0,0.1
	c0,0.1,0,0.1-0.1,0.1c-0.5,0.5-0.9,1.1-1.1,1.5c-0.2,0.4-0.1,0.9,0.2,1.3c0.3,0.4,0.7,0.5,1.2,0.5h6.3c0.1,0,0.2,0,0.3,0
	c0.1,0,0.2,0,0.3,0H69c0.1,0,0.2,0,0.3,0c0.1,0,0.2,0,0.3,0h2.3c0.1,0,0.2,0.1,0.3,0.1c0.1,0,0.2,0.2,0.3,0.2l5.1,0
	c0.1,0,0.1,0,0.2,0c0.5,0,0.9-0.1,1.2-0.4c0.1,0.4,0.3,0.7,0.6,0.9c0.2,0.1,0.3,0.2,0.5,0.3c0.6,0.2,1.2,0.3,1.8,0.3
	c0.2,0,0.4,0,0.6-0.1c0.6,0,1.2-0.1,1.9-0.3c0.1,0.1,0.1,0.1,0.2,0.2c0.1,0.1,0.2,0.2,0.3,0.2c0,0,0,0.1,0.1,0.1
	c0.5,0.5,1.1,0.9,1.7,1.2c0.2,0.1,0.4,0.1,0.6,0.1c0.2,0,0.4,0,0.5-0.1c0.7-0.3,1.3-0.7,1.8-1.2c0,0,0.1-0.1,0.1-0.1
	c0.1-0.1,0.2-0.2,0.3-0.3c0,0,0.1-0.1,0.1-0.1c0.7,0.2,1.4,0.3,1.9,0.3c0.2,0.1,0.4,0.1,0.6,0.1c0.7,0,1.3-0.1,1.9-0.3
	c0.3-0.1,0.5-0.2,0.7-0.4c0.2-0.2,0.4-0.5,0.5-0.9c0.3,0.2,0.7,0.3,1.2,0.3l5.3-0.1c0.1,0,0.2,0,0.3,0c0.1,0,0.2-0.1,0.3-0.1h2.3
	c0.1,0,0.2,0,0.3,0c0.1,0,0.2,0,0.3,0h2.3c0.1,0,0.2,0,0.3,0c0.1,0,0.2,0,0.3,0h6.3c0.5,0,0.9-0.1,1.2-0.5c0.3-0.4,0.3-0.7,0.2-1.1
	c-0.2-0.5-0.6-1.2-1-1.6c0-0.1,0-0.1-0.1-0.2c0,0,0-0.1,0-0.1c0.6-0.6,1-1.4,1.1-1.7c0.2-0.4,0.1-0.9-0.2-1.3c0,0,0,0,0,0
	c0.1-0.1,0.1-0.1,0.2-0.2c0.3-0.3,0.4-0.7,0.3-1.1c-0.1-1.1-0.5-2-1.1-2.5c0,0,0.1-0.1,0.1-0.1c0.6,0.6,1.4,1.1,2.5,1.3
	c0.1,0,0.2,0,0.3,0c0,0,0.1,0,0.1,0c1.2-0.1,2.4-0.8,3.4-2.1c0.9-1.1,1.6-2.9,1.3-4.5c-0.1-0.4-0.3-0.7-0.5-1.1c0.5-0.1,0.9-0.5,1-1
	l0,0C124.2,31.4,125.2,28,123,26z M56.2,29.4c0.2,0.3,0.3,0.6,0.3,0.9c-0.1,0.2-0.6,0.5-1,0.8C55.8,30.5,56.1,30,56.2,29.4z
	 M57.7,34.6c-0.4,1.1-0.7,2.2-1.4,2.9c-0.3-0.3-0.6-0.8-0.7-1.1c0.2-0.5,0.9-1,1.6-1.6c0.2-0.1,0.4-0.3,0.6-0.4
	C57.8,34.4,57.7,34.5,57.7,34.6z M60.4,30.4c0-0.6,0-1.1-0.2-1.7c0,0,0.1,0.1,0.1,0.1c0.1,0.1,0.1,0.1,0.2,0.2
	c0.3,0.2,0.5,0.4,0.8,0.5c0,0,0,0,0,0C61,29.8,60.7,30.1,60.4,30.4z M72.6,40.3c-0.1,0.1-0.1,0.1-0.2,0.2c-0.5-0.6-1.1-1.1-1.9-1.2
	c-0.1,0-0.2,0-0.3,0c-0.2,0-0.4,0-0.5,0.1c-0.3-0.1-0.6-0.1-0.9-0.1c0,0-0.1,0-0.1,0l0.9-1.1c0,0,0.1-0.1,0.1-0.2
	c0.3-0.4,0.5-1,0.6-1.5c1.1,1,2.1,2.1,3,3.4C73.1,39.9,72.8,40.1,72.6,40.3z M73,30.5V30c0-0.1,0.1,0.1,0.2,0c0.3-0.4,0.4-1,0.6-1
	H74c0.5,0,1.1-0.5,1.3-0.9c0.2-0.3-0.3-1,0.7-1.5v5.9c0,0.7,0,1.4,0.1,2.1C74.5,32.3,73,31.1,73,30.5z M91.3,5.3
	c0.1-0.1,0.2-0.3,0.3-0.4c0,0.2-0.1,0.3-0.1,0.5c0,0,0,0,0,0.1c0,0-0.1,0-0.1,0l0,0c-0.1,0-0.1,0-0.1,0C91.2,5.4,91.2,5.4,91.3,5.3z
	 M83.5,5.3c0,0.1,0.1,0.1,0,0.1c0,0,0,0.1-0.1,0.1l-0.1,0c-0.1,0-0.1,0-0.1,0c0,0,0,0,0,0c0,0,0,0,0-0.1c0-0.2,0-0.4-0.1-0.6
	C83.3,5,83.4,5.1,83.5,5.3z M80,20.8c1-0.7,2-1.6,2.8-2.8c1.1-0.3,2.7-0.4,4.5-0.4c1.9,0,3.3,0.2,4.3,0.4c0.7,1.2,1.4,2,2.4,2.8v1.7
	c-1-2.5-3.9-4.1-7-4.1c-3,0-5,1.7-7,4.2V20.8z M79.3,39.9c-0.1,0-0.1,0-0.2,0c0.2-0.3,0.3-0.5,0.4-0.8l1.5,0.8H79.3z M91.7,41.6
	c0,0.1,0,0.2,0,0.3c0,0,0,0.6,0,0.6c-0.1,0-0.3,0-0.4,0c-1.2,0-2.1,0.5-2.7,0.9c-0.4-0.1-0.8-0.2-1.2-0.2c-0.4,0-0.8,0.1-1.2,0.2
	c-0.5-0.3-1.4-0.9-2.7-0.9c-0.1,0-0.3,0-0.4,0c0,0,0-0.6,0-0.6c0-0.1,0-0.2,0-0.3c0-0.3-0.1-0.6-0.2-0.8l3.9,2
	c0.2,0.1,0.4,0.2,0.6,0.2s0.4-0.1,0.6-0.2l3.9-2.1C91.8,41,91.8,41.3,91.7,41.6z M92.7,35.2l-5.4,2.9l-5.5-2.8
	C80.6,34.6,80,34,80,32.6v-1.2c2,2.5,4,4.2,7,4.2c3,0,6-1.7,7-4.2v1.1C94,34,93.7,34.6,92.7,35.2z M93.8,39.9l1.5-0.8
	c0.1,0.3,0.2,0.5,0.4,0.8C95.6,39.9,93.8,39.9,93.8,39.9z M99,32.6v-6c0,0.9,0.5,1.4,0.7,1.6c0.3,0.4,0.7,0.9,1.1,0.9h0.1
	c0.2,0,0.5,0.6,0.7,1c0.1,0.1,0.4,0,0.4,0.1v0.3c-1,1-2.2,2.9-3.2,4.2C99,34,99,33.3,99,32.6z M105.9,39.2c-0.3,0-0.6,0-0.9,0.1
	c-0.2-0.1-0.3-0.1-0.5-0.1c-0.1,0-0.2,0-0.3,0c-0.7,0.2-1.4,0.6-1.8,1.2c0-0.1-0.1-0.1-0.2-0.2c-0.2-0.2-0.5-0.4-0.9-0.4
	c0.9-1.3,1.9-2.3,3-3.4c0.1,0.6,0.4,1.1,0.7,1.6c0,0,0.1,0.1,0.1,0.1l0.9,1.1C106,39.2,105.9,39.2,105.9,39.2z M114.4,30.5
	c-0.3-0.3-0.6-0.7-0.9-1c0,0,0.1,0,0.1,0c0.2-0.1,0.4-0.2,0.7-0.4c0.1-0.1,0.2-0.1,0.3-0.2c0,0,0.1,0,0.1-0.1
	C114.4,29.3,114.3,29.9,114.4,30.5z M118.5,29.5c0.1,0.5,0.3,1,0.6,1.6c-0.4-0.3-0.8-0.6-0.9-0.8C118.3,30,118.4,29.7,118.5,29.5z
	 M118.5,37.5c-0.7-0.6-1.1-1.7-1.4-2.8c0-0.1-0.1-0.2-0.1-0.3c0.2,0.1,0.4,0.3,0.6,0.4c0.7,0.5,1.5,1.1,1.6,1.6
	C119.1,36.7,118.7,37.3,118.5,37.5z"/>
<path class="st1" d="M87.4,39.1l5.9-3c1.1-0.6,2.2-1.5,2.2-3.6V20.3c-1.6-1-2.4-2-3-3.1c-0.9-0.4-3-0.6-5.1-0.6
	c-2.1,0-4.1,0.2-5,0.6c-0.7,1.1-1.4,2.1-3.1,3.1v12.2c0,2.2,1.1,3,2.2,3.6L87.4,39.1L87.4,39.1z"/>
<path class="st2" d="M87.4,41.6l-7.5-3.9c-2-1.2-2.7-2.8-2.7-5.2V18.8c3.6-1.5,2.8-3.2,4.3-3.7c1.6-0.6,3.1-0.8,5.9-0.8
	c2.8,0,4.4,0.2,6,0.8c1.5,0.5,0.7,2.2,4.3,3.7v13.7c0,2.3-0.7,4-2.7,5.2L87.4,41.6L87.4,41.6z M87.4,49.9c0.7-0.4,0.9-0.7,1.4-1.2
	c-0.4-0.3-0.6-0.6-0.9-1c-0.2,0.1-0.3,0.2-0.5,0.2c-0.2-0.1-0.3-0.1-0.5-0.2c-0.2,0.4-0.5,0.7-0.8,1C86.5,49.2,86.8,49.6,87.4,49.9
	L87.4,49.9z M87.4,47.5c0.5-0.2,0.9-0.5,1.2-1c0.5,0.3,1.2,0.7,1.8,0.7c-0.2-1.5-1.6-2.5-3-2.5c-1.3,0-2.7,1-3,2.5
	c0.6,0,1.4-0.4,1.8-0.7C86.5,47,86.9,47.2,87.4,47.5L87.4,47.5z M87.4,52.5c0.6-0.2,1-0.6,1.4-0.9c-0.4-0.4-0.6-0.8-0.9-1.3
	c-0.1,0.1-0.2,0.1-0.4,0.2c-0.2-0.1-0.3-0.1-0.4-0.2c-0.3,0.5-0.5,0.9-0.9,1.3C86.4,51.9,86.8,52.2,87.4,52.5L87.4,52.5z M87.4,12.4
	c1.4,0,4.1,0.1,6.4,0.9v-1.5c-2.1-0.6-4-0.9-6.4-0.9c-2.4,0-4.2,0.2-6.3,0.9v1.5C83.3,12.5,86.1,12.4,87.4,12.4L87.4,12.4z
	 M105.8,49.9l-1.5-2h2.2l1.6,2H105.8L105.8,49.9z M102.8,49.9l-1.5-2h2.2l1.5,2H102.8L102.8,49.9z M93.1,42v0.5
	c0,0.4,0.2,0.6,0.4,0.6c0.4,0.4,1.2,0.8,1.9,2.1c0.3-0.4-0.9-2.7-0.8-2.8c0.2-0.1,1.2,2.2,1.4,3.6c2.6-1.7,2.9-3,3.1-2.6
	c0.2,0.2-1.5,1.9-3,2.9c0.5,1.1,2.7,2.5,2.7,2.6c-0.1,0.3-2.4-1.6-2.6-1.8c0.5,2.1-0.2,3,0.8,2.9h5.2l-1.5-2h-1.9
	c-0.6-1.3-0.1-2.9,0.8-3c0.5-0.1,1.4-0.2,1.4-0.9l0.2-2.8h-3c-0.9,0-0.7,1.9-0.7,2c0,0.7-1.5,0.8-1.7-0.2c-0.2-0.5-0.1-0.7,0.1-1.2
	c0.1-0.2,0.1-0.6-0.3-0.6h-2C93,41.3,93.2,41.7,93.1,42L93.1,42z M100,45.3c-0.9,0-1.1,1.3-0.9,2h1.6l1.5-2H100L100,45.3z
	 M102.8,45.3l-1.5,2h2.2l1.5-2H102.8L102.8,45.3z M105.8,45.3l-1.5,2h2.2l1.6-2H105.8L105.8,45.3z M106.9,47.6l1.1,1.5l2.1-1.5
	l-2.1-1.4L106.9,47.6L106.9,47.6z M108.3,49.4l1.1-0.7h4.8c0.4,0.4,0.7,0.9,0.8,1.2h-6.3L108.3,49.4L108.3,49.4z M111,47.6l-0.9,0.6
	h3.8l-0.4-0.6l0.4-0.6H110L111,47.6L111,47.6z M108.3,45.9l1.1,0.7h4.8c0.4-0.3,0.7-0.9,0.8-1.2h-6.3L108.3,45.9L108.3,45.9z
	 M89.3,44.7c0.6,0.4,1.4,1.3,1.6,2.5h0.4c0.2-0.6,0.2-1.4,0.1-1.9c0.8-0.1,1.2-0.3,1.8-0.7C91.4,43.2,89.7,44.3,89.3,44.7L89.3,44.7
	z M88.2,47.5c0.5,0.9,1.5,1.3,2.1,1.4c0.2-0.5,0.2-0.7,0.1-1.2c-0.7-0.1-1.4-0.5-1.7-0.7C88.5,47.2,88.4,47.4,88.2,47.5L88.2,47.5z
	 M88.2,49.9c0.2,0.5,0.6,1,0.8,1.3c0.5-0.6,0.9-1.2,1.1-1.9c-0.5-0.1-0.8-0.3-1.1-0.4C88.8,49.4,88.5,49.7,88.2,49.9L88.2,49.9z
	 M93.1,49.4c0.1-0.2,0.1-0.4,0.1-0.5c0.6,0.1,0.9,0.2,1.4,0.2c0,0.4-0.2,1.4-0.4,1.6c-0.5,0.1-1,0.2-1.5,0.2c-0.1-0.6-0.1-1-0.1-1.5
	C92.7,49.5,92.9,49.5,93.1,49.4L93.1,49.4z M91.9,46.4c0.9,0.1,1.5,0.2,2.4-0.2c-0.2-0.6-0.5-1-0.8-1.2c-0.5,0.2-0.9,0.4-1.7,0.7
	V46.4L91.9,46.4z M93.4,48.5c0.5,0.2,0.7,0.2,1.3,0.2c0.1-0.6,0-1.3-0.2-2c-0.4,0.2-0.6,0.2-0.9,0.2C93.5,47.4,93.5,47.9,93.4,48.5
	L93.4,48.5z M90.2,50.5c0.2-0.4,0.3-0.6,0.5-1c0.5,0.1,0.9,0.1,1.4,0.1c0.1,0.5,0.1,0.9,0.1,1.4C91.6,50.9,90.9,50.9,90.2,50.5
	L90.2,50.5z M90.8,49c0.1-0.4,0.1-0.7,0.1-1.2h0.7c0.1-0.4,0.2-0.6,0.2-0.9c0.4,0.1,0.7,0.1,1.3,0.1c0,0.4-0.1,1.5-0.4,2
	C92.2,49.1,91.3,49.1,90.8,49L90.8,49z M122.5,24.3c-1.2,0.5-3.1-0.4-4-1.4l-2.8-4.3c-0.2-0.2-0.5-1-0.8-0.4
	c-0.5,1.5-3.4,6.4-7.6,8.4c-0.2-0.2-0.8-0.7-1.2-0.8c3.6-2.7,5.1-4.7,7.2-9.9c-0.7-2.6,1.3-4.2,2.8-2.2L122.5,24.3L122.5,24.3z
	 M113.2,13c-0.7,0.6-0.8,2.2-0.6,2.8c-0.9,2.4-1.8,4.7-3.8,6.9c1.7-2.9,2.4-4.6,3.1-6.9C111.1,13.6,112.2,12.5,113.2,13L113.2,13z
	 M117.9,23c-0.4,0.6-0.8,1.2-1.1,1.6l-2.5-4.2c0.4-0.7,0.7-1.2,0.8-1.7L117.9,23L117.9,23z M116.5,25.1c-0.4,0.4-0.8,0.9-1.2,1.2
	l-2.2-4.1c0.3-0.4,0.7-0.9,0.9-1.3L116.5,25.1L116.5,25.1z M114.9,26.6c-0.3,0.3-0.7,0.6-1.1,1l-1.8-4.1c0.2-0.2,0.5-0.6,0.8-0.9
	L114.9,26.6L114.9,26.6z M113.4,27.9c-0.5,0.3-0.8,0.4-1.1,0.7l-1.5-3.8c0.2-0.2,0.6-0.6,0.9-0.9L113.4,27.9L113.4,27.9z
	 M111.9,28.8c-0.5,0.3-0.6,0.3-1.2,0.6l-1.1-3.6c0.2-0.2,0.5-0.4,0.8-0.6L111.9,28.8L111.9,28.8z M110.1,29.5
	c-0.2,0.1-0.8,0.2-1.2,0.4l-0.5-3.4c0.2-0.2,0.4-0.3,0.7-0.5L110.1,29.5L110.1,29.5z M108.5,29.9c-0.3,0.1-0.7,0.2-1,0.3V27
	c0.2-0.1,0.4-0.2,0.7-0.3L108.5,29.9L108.5,29.9z M106.7,24.7l-1.3,1c-2.3,0.1-2.7,2.3-2.7,3.3c-1-1.5-1.4-3.9-0.2-6.1
	c0.8,0.4,1.7,0.6,3,0.3C105.8,23.8,106.4,24.4,106.7,24.7L106.7,24.7z M108.2,23.3c-0.4,0.4-0.7,0.7-1.2,1.1
	c-0.7-0.7-1.1-1.2-1.2-1.8c-1.9,0.6-3.5,0-3.6-0.9c0.4,0.1,0.8-0.1,1.4-0.7c0.7,0.4,1.9,0.4,3,0C106.7,22.1,107.3,22.8,108.2,23.3
	L108.2,23.3z M109.6,11.7c0.1,0.4-0.2,1.6-0.5,2c0,0.3,0.4,1.4,0.5,2.3c-0.1,2.7-1.4,4.9-1.2,6.9c-1.2-0.7-1.3-1.3-1.5-2.5
	c-0.9,0.3-2.1,0.7-3.4,0c2-1.8,4-4.7,2.5-7.3c-1-0.6-1.7-0.7-1.1-1.9C107.1,11.5,108.4,13,109.6,11.7L109.6,11.7z M107.2,12h-1.6
	c0.1,0.2,0.3,0.4,0.5,0.2c0,0.1,0.1,0.4,0.4,0.5l0.4-0.5C107.1,12.3,107.3,12.3,107.2,12L107.2,12z M104.3,11.9
	c-0.1,0.4,0.2,1.1,1.3,1.5c0.5,0.8,0.6,2,0.3,3.2c0.2-2.6-2.1-3.6-3.1-2.9c-0.2-0.8-0.8-2.3,0.5-2.1L104.3,11.9L104.3,11.9z
	 M109,11.5c-0.2,0.1-0.5,0.2-1.1,0.1l1-0.9L109,11.5L109,11.5z M99.8,17.7l2.3,5c-0.7,1.4-0.9,3.1-0.7,4.4h-0.7
	c-0.7-0.9-1.5-4.6-2.2-7.7c-0.2-1.1-0.9-0.8-1.9-1.5l0.4-0.6c0.2-0.4-0.1-0.7-0.4-0.4l-0.4,0.7c-0.4-0.3-0.7-0.6-1-0.9l0.9-0.9
	C97.1,15.5,98.7,15.5,99.8,17.7L99.8,17.7z M107.1,27.1v5.3c-2.7,2.1-5,4.1-7,6.9h-1.7v-0.5c0-0.5-0.6-0.5-0.6,0v0.5h-0.8
	c-0.9-1.5-0.2-3.1,2-2.3c1-1.5,4-5.6,4.4-6V29c0-1.3,0.4-2.8,2-2.9C105.9,26.1,106.2,26.3,107.1,27.1L107.1,27.1z M115.5,38.5
	c0.7,0.8,1.4,1.8,2.9,2.1c2-0.1,3.8-3.1,3.4-4.9c-0.7-2.5-4.9-3.7-4.9-5.3c-0.1-1.4,0.9-2.9,2.1-3.3c1.1-0.2,2.4,1,0.8,1.8
	c0.1,0.6,0.4,1.2,0.6,1.5l0.2-1c0.1-0.5,0.5-0.4,0.4,0.1l-0.2,1.3c0.1,0.3,0.3,0.6,0.5,0.9l0.5-2.3c0.1-0.5,0.5-0.4,0.4,0.1
	l-0.5,2.6c0.2,0.3,0.4,0.4,0.7,0.8c0.4-1.6,1.4-5.2-0.4-6.3c-0.8-0.5-2-0.2-3.1-0.7c-1.8,0.7-3.6,3-3,4.9c0.8,2.5,4.4,3.2,4.8,5.4
	c0,1.1-1.4,3.2-2.6,2.6c-2-1.3-2.1-4.4-3.1-5.8c-1.4-1.5-2.5-2.6-3.4-3.5c-1.2,0.4-1.8,0.7-4,1.1v1.4c0.7-0.4,2.4-0.7,3.7,0.2
	c0.2,0.1,0.2,0.6,0,0.6c-1.3-0.9-2.7-0.9-3.8,0c-1.3,1-0.9,3.3-0.1,4.1l3,3.3c0.6-0.2,0.7,0.4,0.2,0.5l-2.5,0.6
	c-2.4-1.4-3.5-0.5-3.9,1.3v0.8h1.6v-0.7c0-0.4,0.5-0.4,0.5,0v0.7h9.2c-0.1-1-0.5-1.6-0.9-1.7c-0.4-0.3-0.8-1.5-1-2.3
	c-0.2-0.6,0.2-0.7,0.4-0.1L114,40C114.8,39.9,114.9,38.9,115.5,38.5L115.5,38.5z M109.7,40.3l-0.8,0.2l-2.7-3.2
	c-0.8-1.1-0.8-2.9,0.2-3.8c-0.6,1-0.2,2.6,0.4,3.6L109.7,40.3L109.7,40.3z M103.5,43.4h-0.6c-0.1-1.3,0.5-2.5,1.5-2.8
	C104.1,41,103.5,41.7,103.5,43.4L103.5,43.4z M69,49.9l1.5-2h-2.2l-1.6,2H69L69,49.9z M71.9,49.9l1.5-2h-2.3l-1.6,2H71.9L71.9,49.9z
	 M81.7,42v0.5c0,0.4-0.2,0.6-0.4,0.6c-0.4,0.4-1.3,0.8-2,2.1c-0.2-0.4,0.9-2.7,0.8-2.8c-0.2-0.1-1.1,2.2-1.3,3.6
	c-2.6-1.7-2.9-3-3.1-2.6c-0.2,0.2,1.4,1.9,3,2.9c-0.5,1.1-2.7,2.5-2.7,2.6c0.1,0.3,2.4-1.6,2.6-1.8c-0.5,2.1,0.2,3-0.9,2.9h-5.2
	l1.6-2H76c0.6-1.3,0.1-2.9-0.9-3c-0.5-0.1-1.3-0.2-1.3-0.9l-0.2-2.8h3c0.9,0,0.7,1.9,0.7,2c0,0.7,1.6,0.8,1.8-0.2
	c0.2-0.5,0.1-0.7-0.1-1.2c-0.1-0.2-0.1-0.6,0.3-0.6h2C81.7,41.3,81.6,41.7,81.7,42L81.7,42z M74.8,45.3c1,0,1.2,1.3,0.9,2h-1.6
	l-1.6-2H74.8L74.8,45.3z M71.9,45.3l1.5,2h-2.3l-1.6-2H71.9L71.9,45.3z M69,45.3l1.5,2h-2.2l-1.6-2H69L69,45.3z M67.9,47.6l-1.1,1.5
	l-2.1-1.5l2.1-1.4L67.9,47.6L67.9,47.6z M66.5,49.4l-1.1-0.7h-4.8c-0.4,0.4-0.7,0.9-0.8,1.2h6.3L66.5,49.4L66.5,49.4z M63.8,47.6
	l0.9,0.6h-3.8l0.4-0.6l-0.4-0.6h3.8L63.8,47.6L63.8,47.6z M66.5,45.9l-1.1,0.7h-4.8c-0.4-0.3-0.7-0.9-0.8-1.2h6.3L66.5,45.9
	L66.5,45.9z M85.5,44.7c-0.7,0.4-1.4,1.3-1.6,2.5h-0.4c-0.2-0.6-0.2-1.4-0.1-1.9c-0.8-0.1-1.3-0.3-1.8-0.7
	C83.3,43.2,85.1,44.3,85.5,44.7L85.5,44.7z M86.6,47.5c-0.5,0.9-1.6,1.3-2.1,1.4c-0.2-0.5-0.2-0.7-0.1-1.2c0.7-0.1,1.5-0.5,1.8-0.7
	C86.3,47.2,86.4,47.4,86.6,47.5L86.6,47.5z M86.5,49.9c-0.2,0.5-0.6,1-0.8,1.3c-0.5-0.6-0.9-1.2-1.1-1.9c0.5-0.1,0.9-0.3,1.1-0.4
	C85.9,49.4,86.2,49.7,86.5,49.9L86.5,49.9z M81.7,49.4c-0.1-0.2-0.1-0.4-0.1-0.5c-0.6,0.1-0.9,0.2-1.5,0.2c0,0.4,0.2,1.4,0.5,1.6
	c0.5,0.1,1,0.2,1.5,0.2c0.1-0.6,0.1-1,0.1-1.5C82,49.5,81.9,49.5,81.7,49.4L81.7,49.4z M82.9,46.4c-0.9,0.1-1.5,0.2-2.4-0.2
	c0.2-0.6,0.5-1,0.8-1.2c0.5,0.2,0.8,0.4,1.7,0.7V46.4L82.9,46.4z M81.4,48.5c-0.5,0.2-0.7,0.2-1.4,0.2c-0.1-0.6,0-1.3,0.2-2
	c0.5,0.2,0.7,0.2,0.9,0.2C81.3,47.4,81.3,47.9,81.4,48.5L81.4,48.5z M84.5,50.5c-0.2-0.4-0.2-0.6-0.4-1c-0.5,0.1-0.9,0.1-1.5,0.1
	c-0.1,0.5-0.1,0.9-0.1,1.4C83.2,50.9,83.9,50.9,84.5,50.5L84.5,50.5z M84,49c-0.1-0.4-0.1-0.7-0.1-1.2h-0.7
	c-0.1-0.4-0.2-0.6-0.2-0.9C82.5,47,82.2,47,81.7,47c0,0.4,0.1,1.5,0.4,2C82.6,49.1,83.5,49.1,84,49L84,49z M81.1,8.4
	c-0.4-1.3,1.4-1.7,1.7-0.5l0.4,1l-1.7,0.4L81.1,8.4L81.1,8.4z M87.4,8.6h1.2V7.4c-0.1-0.9-0.6-1.2-1.2-1.2c-0.7,0-1.2,0.4-1.3,1.2
	v1.2H87.4L87.4,8.6z M87.4,9.3c2.2,0,4.6,0.3,6.6,1l2-3.9L93.5,5c-0.4-0.2-0.7,0.1-0.6,0.4c-0.1,1.1-0.8,1.5-1.8,1.4
	c-1.1-0.1-1.8-1.4-0.9-2.5c0.4-0.5,0.5-0.9-0.1-1.2l-2.7-1.8l-2.7,1.8c-0.6,0.3-0.5,0.7-0.1,1.2c0.8,1.1,0.1,2.3-1,2.5
	c-0.9,0.1-1.7-0.3-1.8-1.4c0.1-0.4-0.2-0.6-0.6-0.4l-2.5,1.3l2,3.9C82.8,9.6,85.2,9.3,87.4,9.3L87.4,9.3z M93.6,8.4l-0.4,0.9L91.6,9
	l0.4-1C92.3,6.7,94,7.1,93.6,8.4L93.6,8.4z M52.2,24.3c1.3,0.5,3.1-0.4,4.1-1.4l2.8-4.3c0.2-0.2,0.5-1,0.8-0.4
	c0.5,1.5,3.4,6.4,7.6,8.4c0.2-0.2,0.9-0.7,1.2-0.8c-3.7-2.7-5.1-4.7-7.2-9.9c0.7-2.6-1.3-4.2-2.8-2.2L52.2,24.3L52.2,24.3z M61.6,13
	c0.7,0.6,0.8,2.2,0.5,2.8c1,2.4,1.9,4.7,3.8,6.9c-1.7-2.9-2.4-4.6-3.1-6.9C63.7,13.6,62.5,12.5,61.6,13L61.6,13z M56.8,23
	c0.4,0.6,0.8,1.2,1.2,1.6l2.5-4.2c-0.5-0.7-0.7-1.2-0.9-1.7L56.8,23L56.8,23z M58.3,25.1c0.4,0.4,0.8,0.9,1.1,1.2l2.2-4.1
	c-0.3-0.4-0.7-0.9-0.9-1.3L58.3,25.1L58.3,25.1z M59.8,26.6c0.3,0.3,0.7,0.6,1.2,1l1.8-4.1c-0.2-0.2-0.5-0.6-0.8-0.9L59.8,26.6
	L59.8,26.6z M61.4,27.9c0.4,0.3,0.7,0.4,1.1,0.7l1.6-3.8c-0.2-0.2-0.6-0.6-0.9-0.9L61.4,27.9L61.4,27.9z M62.9,28.8
	c0.5,0.3,0.7,0.3,1.2,0.6l1-3.6c-0.2-0.2-0.5-0.4-0.8-0.6L62.9,28.8L62.9,28.8z M64.6,29.5c0.2,0.1,0.9,0.2,1.2,0.4l0.5-3.4
	c-0.2-0.2-0.4-0.3-0.7-0.5L64.6,29.5L64.6,29.5z M66.3,29.9c0.3,0.1,0.7,0.2,0.9,0.3V27c-0.2-0.1-0.4-0.2-0.7-0.3L66.3,29.9
	L66.3,29.9z M68.1,24.7l1.2,1C71.7,25.7,72,28,72,29c1.1-1.5,1.5-3.9,0.2-6.1c-0.7,0.4-1.6,0.6-3,0.3C69,23.8,68.4,24.4,68.1,24.7
	L68.1,24.7z M66.5,23.3c0.4,0.4,0.7,0.7,1.1,1.1c0.8-0.7,1.1-1.2,1.2-1.8c1.9,0.6,3.4,0,3.6-0.9c-0.4,0.1-0.8-0.1-1.3-0.7
	c-0.7,0.4-1.9,0.4-3,0C68.1,22.1,67.4,22.8,66.5,23.3L66.5,23.3z M65.2,11.7c-0.1,0.4,0.2,1.6,0.5,2c0,0.3-0.4,1.4-0.5,2.3
	c0.1,2.7,1.4,4.9,1.2,6.9c1.2-0.7,1.3-1.3,1.5-2.5c0.9,0.3,2.1,0.7,3.4,0c-2.1-1.8-4-4.7-2.5-7.3c0.9-0.6,1.7-0.7,1.1-1.9
	C67.7,11.5,66.3,13,65.2,11.7L65.2,11.7z M67.5,12h1.6c-0.1,0.2-0.3,0.4-0.5,0.2c0,0.1-0.1,0.4-0.4,0.5l-0.4-0.5
	C67.7,12.3,67.5,12.3,67.5,12L67.5,12z M70.4,11.9c0.1,0.4-0.2,1.1-1.3,1.5c-0.5,0.8-0.6,2-0.3,3.2c-0.2-2.6,2.1-3.6,3-2.9
	c0.2-0.8,0.8-2.3-0.4-2.1L70.4,11.9L70.4,11.9z M65.8,11.5c0.2,0.1,0.5,0.2,1,0.1l-0.9-0.9L65.8,11.5L65.8,11.5z M74.9,17.7l-2.3,5
	c0.8,1.4,1,3.1,0.7,4.4H74c0.6-0.9,1.5-4.6,2.2-7.7c0.2-1.1,0.9-0.8,1.9-1.5l-0.4-0.6c-0.2-0.4,0.1-0.7,0.5-0.4l0.4,0.7
	c0.4-0.3,0.7-0.6,0.9-0.9l-0.8-0.9C77.6,15.5,76.1,15.5,74.9,17.7L74.9,17.7z M67.7,27.1v5.3c2.7,2.1,5,4.1,7,6.9h1.8v-0.5
	c0-0.5,0.5-0.5,0.5,0v0.5h0.8c0.9-1.5,0.2-3.1-2-2.3c-1.1-1.5-4-5.6-4.4-6V29c0-1.3-0.4-2.8-2.1-2.9C68.9,26.1,68.5,26.3,67.7,27.1
	L67.7,27.1z M59.2,38.5c-0.6,0.8-1.4,1.8-2.8,2.1c-2-0.1-3.8-3.1-3.4-4.9c0.7-2.5,4.9-3.7,4.9-5.3c0.1-1.4-1-2.9-2.1-3.3
	c-1.2-0.2-2.4,1-0.9,1.8c-0.1,0.6-0.4,1.2-0.6,1.5l-0.2-1c-0.1-0.5-0.5-0.4-0.4,0.1l0.2,1.3c-0.1,0.3-0.3,0.6-0.5,0.9L53,29.4
	c-0.1-0.5-0.5-0.4-0.5,0.1l0.6,2.6c-0.2,0.3-0.4,0.4-0.7,0.8c-0.4-1.6-1.4-5.2,0.4-6.3c0.8-0.5,1.9-0.2,3.1-0.7c1.7,0.7,3.5,3,3,4.9
	c-0.8,2.5-4.4,3.2-4.8,5.4c0,1.1,1.4,3.2,2.5,2.6c2.1-1.3,2.2-4.4,3.1-5.8c1.4-1.5,2.5-2.6,3.5-3.5c1.1,0.4,1.8,0.7,3.9,1.1v1.4
	c-0.6-0.4-2.4-0.7-3.6,0.2c-0.2,0.1-0.2,0.6,0,0.6c1.2-0.9,2.7-0.9,3.8,0c1.4,1,0.9,3.3,0.1,4.1l-3,3.3c-0.5-0.2-0.7,0.4-0.2,0.5
	l2.5,0.6c2.4-1.4,3.6-0.5,4,1.3v0.8h-1.6v-0.7c0-0.4-0.5-0.4-0.5,0v0.7h-9.2c0.1-1,0.5-1.6,0.9-1.7c0.4-0.3,0.8-1.5,1-2.3
	c0.2-0.6-0.2-0.7-0.4-0.1L60.8,40C60,39.9,59.8,38.9,59.2,38.5L59.2,38.5z M65,40.3l0.8,0.2l2.7-3.2c0.7-1.1,0.8-2.9-0.2-3.8
	c0.6,1,0.2,2.6-0.4,3.6L65,40.3L65,40.3z M71.3,43.4h0.5c0.1-1.3-0.4-2.5-1.5-2.8C70.7,41,71.3,41.7,71.3,43.4L71.3,43.4z
	 M87.4,19.7c3.9,0,7,3.2,7,7.3c0,3.9-3.1,7.3-7,7.3c-3.8,0-6.9-3.3-6.9-7.3C80.4,22.9,83.6,19.7,87.4,19.7L87.4,19.7z M87.4,20.7
	c-3.3,0-6,2.8-6,6.2c0,3.4,2.7,6.3,6,6.3c3.4,0,6-2.8,6-6.3C93.4,23.5,90.7,20.7,87.4,20.7L87.4,20.7z M89.5,29.9
	c3.4,0.4,4.2-4.3,2.7-6.1c-1.4-1.8-3.3-1.7-3.4-0.3c-1.4-3.3-5.6-1.6-6.5,0.6c-0.8,2.3,0.2,3.8,1.5,3.2c-2,2.9,1.5,5.8,3.7,5.5
	C89.8,32.4,90.7,30.7,89.5,29.9L89.5,29.9z M88.4,29.8c-0.6-0.2-1.6,0.1-2.1,0.4c-0.5,0.4,0,1.2,0.6,0.7
	C87.2,30.6,87.5,29.8,88.4,29.8L88.4,29.8z M89.3,24.7c0.1,0.6,0.8,1.3,1.4,1.6c0.5,0.2,0.9-0.6,0.3-0.9
	C90.6,25.2,89.7,25.4,89.3,24.7L89.3,24.7z M84.5,26.3c0.5-0.4,0.8-1.4,0.7-2c-0.1-0.6-1-0.6-0.9,0.1C84.3,24.9,84.9,25.5,84.5,26.3
	L84.5,26.3z M87.5,24.7c0.4,0.8,0.3,1.2,0.2,2.2c0.1-0.3,0.4-0.6,0.6-0.6c0.4-1.4-0.9-3-2-3.6c1.4,1.8-0.5,2,0,3.6
	c0.4-0.1,0.8,0.1,1.1,0.6C87.7,26.3,87.8,25.6,87.5,24.7L87.5,24.7z M87.7,27.5c-1.5-2.9-3.3,0.7-3.1,2.3c0.4-2.2,2.4-0.3,3-1.7
	c0.7,1.4,2.9,0.8,3.6,0c-0.7,0.2-1,0.2-1.5-0.9C89.3,26.5,88.2,25.5,87.7,27.5L87.7,27.5z M86.7,31.9c0.5,0.2,1.6-0.1,2-0.5
	c0.5-0.4,0.1-1.2-0.5-0.7C87.8,30.9,87.5,31.8,86.7,31.9L86.7,31.9z M83.7,23.9c-0.5,0.4-0.8,1.4-0.7,2c0.1,0.7,0.9,0.7,0.9-0.1
	C83.9,25.2,83.3,24.6,83.7,23.9L83.7,23.9z M91.9,25.1c-0.1-0.6-0.8-1.4-1.4-1.7c-0.6-0.2-1.1,0.6-0.4,0.9
	C90.6,24.6,91.4,24.4,91.9,25.1L91.9,25.1z M87.4,39.7l6.2-3.2c1.4-0.9,2.4-1.8,2.4-3.9V20c-1.6-0.9-2.4-1.7-3.1-3.1
	c-1.4-0.5-3.4-0.7-5.4-0.7c-2,0-4,0.2-5.4,0.7c-0.8,1.4-1.5,2.3-3.1,3.1v12.6c0,2.1,0.9,3.1,2.4,3.9L87.4,39.7L87.4,39.7z"/>
<path class="st0" d="M155.4,86.9c-1.6,0-3-0.6-4-1.4c-0.3,0.8-1.1,1.4-2.3,1.4h-6.6c-1.9,0-3.5-0.8-4.6-2c-0.2,1-1,2-2.4,2h-6.7
	c-3.8,0-6.3-3.1-6.3-6.1v-1c-0.4,0.9-1,1.7-1.6,2.4c-0.6,0.7-1.3,1.4-2.1,2c-0.3,0.2-0.5,0.4-0.7,0.5l-0.2,0.1c-2.9,1.8-5.8,2-8,2
	c-2.4,0-4.6-0.6-6.5-1.8c-0.2,0.9-1,1.8-2.4,1.8h-7.8c-2.5,0-5.5-1.6-6.2-5.3l-1.7-6.8c-0.2,0.5-0.4,0.9-0.5,1.1
	c-0.4,0.9-0.5,1.7-0.5,2.3c0,2.4,0.6,3.9,1.6,4.3c1.1,0.5,1.7,1.5,1.5,2.6c-0.2,1.1-1.2,1.8-2.4,1.8h-6c-3,0-5.4-1.9-5.9-4.6
	c-0.6,0.7-1.3,1.4-2.1,2c-0.4,0.3-0.8,0.5-0.9,0.7c0,0-0.1,0.1-0.1,0.1c-2.1,1.3-4.5,1.9-7.8,1.9c-4.5,0-8.4-2.2-10.7-5.6
	c-1,3.8-4.8,5.6-7.6,5.6H31.7c-3.8,0-6.3-3.1-6.3-6.1v-0.7c-0.4,0.8-0.9,1.5-1.5,2.2c-0.6,0.7-1.3,1.4-2.1,2
	c-0.3,0.2-0.5,0.4-0.7,0.5c0,0-0.2,0.2-0.3,0.2c-2.9,1.7-5.8,2-7.9,2c-7.3,0-13-5.7-13-13c0-6.4,4.8-13,12.7-13h32.6
	c3.1,0,5.4,2.4,5.4,5.5c0,0.4-0.1,0.8-0.2,1.1c2-3.8,5.9-6.6,11.1-6.6h12.5c1.6,0,2.5,1.2,2.5,2.3c0,1.1-0.8,2.3-2.5,2.3
	c-0.1,0-0.5,0.5-0.5,0.7c0,0.2,0.4,0.9,0.7,1.4c0.6,1,1.5,3.2,1.7,5.8c0.1-0.1,0.1-0.1,0.2-0.2c0.9-1,4-4.2,4.2-4.5
	c1.2-1.3,1.5-2.4,1.6-2.6c0-0.4-0.4-0.7-0.5-0.7c0,0,0,0,0,0c-1.3,0-2.4-1-2.4-2.2c0-1.3,1.1-2.4,2.5-2.4h7.8c3.3,0,5.8,2.7,6.2,5.4
	l1.5,5.4c1-5.6,5.5-10.8,12.6-10.8h19.1c1.7,0,3.4,0.7,4.6,2c0.2-1,1-2,2.4-2h6.7c1.4,0,2.8,0.5,4,1.4c0.3-0.8,1.1-1.4,2.3-1.4h7
	c0,0,0.1,0,0.1,0c1.6,0.1,3,0.8,4.2,2.1c1,1.1,1.6,2.7,1.6,4.1v1.4c2.5,0.2,4.8,0.8,7,1.8c4.2,1.9,6.4,5.1,6.4,8.8
	c0,5.3-4.5,7.7-7.8,7.7H155.4z M135,81.6c0,0.2,0.3,0.7,0.4,0.7c0.4,0,0.7,0.1,1,0.2c-0.2-0.5-0.2-1.1-0.2-1.6l0-4.6
	c-0.1-0.8-0.7-1.5-1.2-2V81.6z M149.3,82.3c-0.1-0.5-0.2-1-0.2-1.5V66.3c0-0.5-0.4-0.7-0.5-0.7c0,0-0.1,0-0.1,0
	c0.1,0.5,0.2,1.1,0.2,1.7v14.3c0,0.2,0.2,0.7,0.4,0.7c0,0,0,0,0,0C149.2,82.3,149.3,82.3,149.3,82.3z M161.7,81.2c0,0,0,0.7,0.9,0.7
	c0.8,0,1.5-1.7,1.5-3.6c0-1.2-0.4-2.3-1-3.1c-0.4-0.5-0.9-0.8-1.4-1.1V81.2z M38.1,81.1c0,0,0.2,0.7,0.9,0.7c0.7,0,1.5-1.6,1.5-3.6
	c0-2.2-1-3.6-2.4-4.2L38.1,81.1C38.1,81.1,38.1,81.1,38.1,81.1z M113.1,80.9c0.1,0,0.3,0,0.4,0l0,0c0.5,0,1-0.2,1.3-0.5
	c0.4-0.4,0.7-1.2,0.7-2c-0.3-0.7-0.6-1.4-1.2-2.2c-0.4-0.6-0.9-1.1-1.4-1.7l-0.5-0.5c-1-1.2-2-2.6-2.6-4.7c-0.9,1.6-1.2,3.5-1.2,4.7
	C108.7,76.8,110.4,80,113.1,80.9z M65.2,80.9c0.1,0,0.3,0,0.4,0l0,0c0.5,0,1-0.2,1.3-0.5c0.4-0.4,0.7-1.2,0.7-2
	c-0.3-0.7-0.6-1.4-1.2-2.2c-0.4-0.6-0.9-1.2-1.4-1.7l-0.5-0.5c-1-1.2-2-2.6-2.6-4.7c-0.9,1.6-1.2,3.5-1.2,4.7
	C60.8,76.8,62.4,80,65.2,80.9z M16.2,80.9c0.1,0,0.3,0,0.4,0l0,0c0.5,0,1-0.2,1.3-0.5c0.4-0.4,0.7-1.2,0.7-2
	c-0.3-0.7-0.6-1.4-1.2-2.2c-0.4-0.6-0.9-1.2-1.4-1.7l-0.5-0.5c-1-1.2-2-2.6-2.6-4.7c-0.9,1.6-1.2,3.5-1.2,4.7
	C11.8,76.8,13.4,80,16.2,80.9z M48.6,72.7c0.1,0.1,0.3,0.2,0.4,0.4c0.1-0.8,0.2-1.7,0.4-2.5c-0.1,0.3-0.2,0.6-0.2,0.8
	C49.1,72,48.9,72.4,48.6,72.7z M38.1,68.6c1.9,0.2,3.7,0.5,5.3,1.1C41.9,68,40,67,38,66.6c0,0.2,0.1,0.5,0.1,0.7V68.6z M136.2,68.6
	v-2.2c0-0.5-0.4-0.7-0.5-0.7c-0.3,0-0.6-0.1-0.9-0.2c0.2,0.6,0.3,1.2,0.3,1.8v1.3H136.2z M122,65.6c-0.2,0-0.4,0.4-0.4,0.7
	c0,0.2,0.4,1,0.7,1.5c0,0,0.1,0.1,0.1,0.2v-1.7C122.4,65.7,122,65.6,122,65.6z M25.4,67.9v-1.6c0-0.5-0.2-0.7-0.3-0.7
	c-0.3,0.1-0.4,0.6-0.4,0.8c0,0.1,0.4,0.8,0.6,1.2l0,0.1C25.4,67.8,25.4,67.8,25.4,67.9z"/>
<path class="st3" d="M19,75.2c-0.6-0.9-1.3-1.6-2-2.4c-1-1.2-2-2.6-2.4-4.8c-0.3-1.7,0.5-3,1.2-3.8c-4.4,1.7-6,6.4-6.1,9.9
	c0,3.6,2.2,7.6,5.9,8.8c1.4,0.3,2.7-0.1,3.6-0.9c0.9-0.9,1.4-2.3,1.3-3.8C20.2,77,19.7,76,19,75.2L19,75.2z M42.4,78.2
	c0-4.3-3.2-6.7-6.4-6.7v9.6c0,0.8,0.8,2.7,2.9,2.7C41.1,83.8,42.4,81.1,42.4,78.2L42.4,78.2z M68.1,75.2c-0.6-0.9-1.3-1.6-2-2.4
	c-1-1.2-2-2.6-2.4-4.8c-0.3-1.7,0.5-3,1.2-3.8c-4.4,1.7-6,6.4-6.1,9.9c0,3.6,2.2,7.6,5.9,8.8c1.4,0.3,2.7-0.1,3.6-0.9
	c0.9-0.9,1.4-2.3,1.3-3.8C69.2,77,68.7,76,68.1,75.2L68.1,75.2z M116,75.2c-0.6-0.9-1.3-1.6-2-2.4c-1-1.2-2-2.6-2.4-4.8
	c-0.3-1.7,0.5-3,1.2-3.8c-4.4,1.7-6,6.4-6.1,9.9c0,3.6,2.2,7.6,5.9,8.8c1.4,0.3,2.7-0.1,3.6-0.9c0.9-0.9,1.4-2.3,1.3-3.8
	C117.2,77,116.6,76,116,75.2L116,75.2z M166.1,78.4c0-1.8-0.6-3.3-1.5-4.4c-1.2-1.5-3-2.3-4.9-2.4v9.6c0,1.1,0.8,2.7,2.9,2.7
	C165,84,166.1,81.1,166.1,78.4L166.1,78.4z M27.4,66.3c0-2-1.5-2.7-2.3-2.7c-1.5,0-2.4,1.3-2.5,2.7c0,0.7,0.4,1.4,0.9,2.5
	C24,69.3,25,71.3,25,74c-0.1,3.2-1.3,5.5-2.6,7c-0.6,0.7-1.3,1.3-1.8,1.7c-0.2,0.2-0.5,0.3-0.6,0.4l-0.2,0.1
	c-2.2,1.3-4.4,1.7-6.9,1.7c-5.7,0-11-4.5-11-11c0-5.4,3.9-11,10.7-11h12.4h7h13.3c2.1,0,3.4,1.6,3.4,3.5c0,0.3-0.1,0.7-0.2,1
	c-0.1,0.3-0.3,0.7-0.5,1.2c-0.4,0.8-0.7,1.7-0.8,2.5c-0.1,0.5-0.4,0.6-0.6,0.1c-1.9-4.6-6.5-6.9-10.6-6.9h-1.1
	c0.7,0.9,1.2,2.1,1.2,2.9v3.3c7.8,0.1,13.4,3.5,13.4,8.7c0,4-3.5,5.7-5.8,5.7H31.7c-2.6,0-4.3-2.2-4.3-4.1V66.3L27.4,66.3z
	 M133,71.6v10c0,1,0.8,2.7,2.4,2.7c0.3,0,0.5,0.1,0.5,0.3c0,0.2-0.2,0.3-0.5,0.3h-6.7c-2.6,0-4.3-2.2-4.3-4.1V66.3
	c0-1.9-1.5-2.7-2.4-2.7c-1.5,0-2.4,1.3-2.4,2.7c0,0.7,0.4,1.4,0.9,2.5c0.3,0.5,1.3,2.5,1.3,5.2c-0.1,3.2-1.3,5.5-2.6,7
	c-0.6,0.7-1.3,1.3-1.8,1.7c-0.2,0.2-0.5,0.3-0.6,0.4l-0.2,0.1c-2.1,1.3-4.4,1.7-6.9,1.7c-5.7,0-11-4.5-11-11c0-5.4,3.9-11,10.8-11
	H122h6.7c2.2,0,4.3,1.6,4.3,4.3v3.3h5.2v-4.2c0-1.8-1.6-2.7-2.4-2.7c-0.3,0-0.5-0.1-0.5-0.3c0-0.2,0.2-0.3,0.5-0.3h6.7
	c2,0,4.3,1.6,4.3,4.3v14.3c0,1,0.8,2.7,2.3,2.7c0.3,0,0.5,0.1,0.5,0.3c0,0.2-0.2,0.3-0.5,0.3h-6.6c-2.7,0-4.3-2.2-4.3-4.1l0-4.7
	c-0.2-2-1.7-3.5-2.8-4c-0.6-0.3-1.2-0.4-1.7-0.4C133.4,71.6,133.2,71.6,133,71.6L133,71.6z M72.6,68.8c0.4,0.5,1.3,2.6,1.4,5.2
	c-0.1,3.2-1.3,5.5-2.6,7c-0.6,0.8-1.3,1.3-1.8,1.7c-0.5,0.4-0.8,0.6-0.9,0.6c-2,1.3-4.3,1.6-6.8,1.6c-5.7,0-11-4.5-11-11
	c0-5.4,3.9-11,10.7-11h12.5c0.3,0,0.5,0.1,0.5,0.3c0,0.2-0.2,0.3-0.5,0.3c-1.5,0-2.5,1.6-2.5,2.7C71.6,67,72,67.7,72.6,68.8
	L72.6,68.8z M93.6,66.8l4,14.3c0.7,2.8,2.9,3.2,3.4,3.2c0.3,0,0.5,0.1,0.5,0.3c0,0.2-0.2,0.3-0.5,0.3h-7.8c-1.6,0-3.7-1-4.3-3.6
	L85.7,69c0,0-2.5,5.2-2.9,6.2c-0.4,1-0.7,2-0.7,3c0,3.7,1.2,5.4,2.8,6.1c0.4,0.2,0.4,0.6-0.1,0.6h-6c-2.3,0-4-1.5-4-3.9
	c0-2.6,1.6-5.1,2.8-6.2c0.9-0.9,4-4.3,4.3-4.6c1.6-1.7,2.1-3.2,2.1-3.9c0-1.6-1.4-2.7-2.5-2.7c-0.3,0-0.4-0.1-0.4-0.3
	c0-0.2,0.1-0.3,0.5-0.3h7.8C91.9,63,93.4,65.2,93.6,66.8L93.6,66.8z M151.2,66.3c0-1.8-1.6-2.7-2.4-2.7c-0.3,0-0.5-0.1-0.5-0.3
	c0-0.2,0.2-0.3,0.5-0.3h7c1.2,0.1,2.2,0.7,2.9,1.5c0.7,0.8,1.1,2,1.1,2.8v3.3c3.2,0.1,5.9,0.7,8.2,1.7c3.2,1.5,5.2,3.9,5.2,7
	c0,4-3.5,5.7-5.8,5.7h-11.9c-2.7,0-4.3-2.2-4.3-4.1V66.3L151.2,66.3z"/>
</svg>